<svg width="22" height="22" viewBox="0 0 22 22" fill="none" xmlns="http://www.w3.org/2000/svg">
<path d="M10.946 5.28359C7.84058 5.28359 5.33569 7.76628 5.33569 10.8442C5.33569 13.9222 7.84058 16.4049 10.946 16.4049C14.0515 16.4049 16.5564 13.9222 16.5564 10.8442C16.5564 7.76628 14.0515 5.28359 10.946 5.28359ZM10.946 14.4594C8.93921 14.4594 7.29858 12.8381 7.29858 10.8442C7.29858 8.85034 8.93433 7.22909 10.946 7.22909C12.9578 7.22909 14.5935 8.85034 14.5935 10.8442C14.5935 12.8381 12.9529 14.4594 10.946 14.4594ZM18.0945 5.05613C18.0945 5.77722 17.5085 6.35313 16.7859 6.35313C16.0584 6.35313 15.4773 5.77238 15.4773 5.05613C15.4773 4.33987 16.0632 3.75913 16.7859 3.75913C17.5085 3.75913 18.0945 4.33987 18.0945 5.05613ZM21.8103 6.37249C21.7273 4.63509 21.3269 3.09611 20.0427 1.82814C18.7634 0.560179 17.2107 0.163335 15.4578 0.076223C13.6511 -0.0254077 8.23608 -0.0254077 6.42944 0.076223C4.6814 0.158496 3.12866 0.555339 1.84448 1.8233C0.560303 3.09127 0.164795 4.63025 0.0769043 6.36765C-0.0256348 8.15828 -0.0256348 13.5254 0.0769043 15.316C0.159912 17.0534 0.560303 18.5924 1.84448 19.8603C3.12866 21.1283 4.67651 21.5251 6.42944 21.6123C8.23608 21.7139 13.6511 21.7139 15.4578 21.6123C17.2107 21.53 18.7634 21.1331 20.0427 19.8603C21.322 18.5924 21.7224 17.0534 21.8103 15.316C21.9128 13.5254 21.9128 8.16312 21.8103 6.37249ZM19.4763 17.2373C19.0955 18.1858 18.3582 18.9166 17.3962 19.2989C15.9558 19.8652 12.5378 19.7345 10.946 19.7345C9.35425 19.7345 5.9314 19.8603 4.49585 19.2989C3.53882 18.9215 2.80151 18.1907 2.41577 17.2373C1.84448 15.8096 1.97632 12.4219 1.97632 10.8442C1.97632 9.26654 1.84937 5.87401 2.41577 4.45118C2.79663 3.50263 3.53394 2.77186 4.49585 2.38953C5.93628 1.8233 9.35425 1.95397 10.946 1.95397C12.5378 1.95397 15.9607 1.82814 17.3962 2.38953C18.3533 2.76702 19.0906 3.49779 19.4763 4.45118C20.0476 5.87885 19.9158 9.26654 19.9158 10.8442C19.9158 12.4219 20.0476 15.8145 19.4763 17.2373Z" fill="#FAFAFA"/>
</svg>
