<svg width="25" height="21" viewBox="0 0 25 21" fill="none" xmlns="http://www.w3.org/2000/svg">
<path d="M22.4302 5.01545C22.4461 5.23555 22.4461 5.4557 22.4461 5.67581C22.4461 12.3893 17.2906 20.1248 7.86802 20.1248C4.96509 20.1248 2.26841 19.2914 0 17.845C0.412451 17.8922 0.808985 17.9079 1.23731 17.9079C3.63257 17.9079 5.83755 17.1061 7.59834 15.7382C5.3458 15.691 3.45811 14.2288 2.80772 12.2164C3.125 12.2635 3.44224 12.2949 3.77539 12.2949C4.2354 12.2949 4.69546 12.232 5.12373 12.122C2.77603 11.6503 1.01519 9.60642 1.01519 7.13799V7.07512C1.69727 7.45247 2.49048 7.6883 3.33115 7.71971C1.95107 6.80779 1.04692 5.25128 1.04692 3.49035C1.04692 2.54702 1.30068 1.68229 1.74487 0.927602C4.26709 4.0092 8.05835 6.02164 12.3096 6.2418C12.2303 5.86446 12.1827 5.47143 12.1827 5.07836C12.1827 2.27973 14.4669 0 17.3064 0C18.7816 0 20.1141 0.613175 21.0501 1.60369C22.208 1.38359 23.3184 0.959059 24.302 0.377342C23.9212 1.55655 23.1122 2.54707 22.0494 3.17592C23.0805 3.06592 24.0799 2.78285 24.9999 2.38983C24.3021 3.39603 23.4295 4.29217 22.4302 5.01545Z" fill="#FAFAFA"/>
</svg>
